<?xml version="1.0" encoding="UTF-8"?>
<svg width="179px" height="141px" viewBox="0 0 179 141" version="1.1" xmlns="http://www.w3.org/2000/svg" xmlns:xlink="http://www.w3.org/1999/xlink">
    <!-- Generator: Sketch 60 (88103) - https://sketch.com -->
    <title>编组</title>
    <desc>Created with Sketch.</desc>
    <g id="页面-1" stroke="none" stroke-width="1" fill="none" fill-rule="evenodd">
        <g id="画板" transform="translate(-124.000000, -171.000000)" fill="#D8D8D8">
            <g id="编组" transform="translate(124.000000, 171.000000)">
                <path d="M89.5,-1.42108547e-14 C138.929485,-1.42108547e-14 179,40.0705149 179,89.5 C179,105.699558 174.69613,120.893894 167.169459,134.00194 L154,134.002 L154.001707,130.648982 C161.597292,118.767516 166,104.647912 166,89.5 C166,47.2502166 131.749783,13 89.5,13 C47.2502166,13 13,47.2502166 13,89.5 C13,104.648762 17.4032025,118.769102 24.9995721,130.650983 L25,134.002 L11.830541,134.00194 C4.30386959,120.893894 0,105.699558 0,89.5 C0,40.0705149 40.0705149,-1.42108547e-14 89.5,-1.42108547e-14 Z" id="形状结合"></path>
                <circle id="椭圆形" cx="18.5" cy="133.5" r="7.5"></circle>
                <circle id="椭圆形备份" cx="160.5" cy="133.5" r="7.5"></circle>
            </g>
        </g>
    </g>
</svg>